<svg width="371" height="82" viewBox="0 0 371 82" fill="none" xmlns="http://www.w3.org/2000/svg">
<path fill-rule="evenodd" clip-rule="evenodd" d="M0 54.4916L54.5131 0.978516V18.954C54.5131 19.9937 54.0925 20.9906 53.3437 21.7257L9.98256 64.2913L0 54.4916ZM16.679 70.8647L54.5131 33.7245V51.7002C54.5131 52.7397 54.0925 53.7366 53.3437 54.4717L36.6446 70.8647L39.9308 74.0907L49.9136 83.8905H29.9481L26.6616 80.6644L16.679 70.8647ZM360.948 54.4031L370.64 61.1629C366.089 67.0617 358.99 70.856 351.015 70.856C337.279 70.856 326.143 59.6033 326.143 45.7223C326.143 31.8414 337.279 20.5889 351.015 20.5889C358.99 20.5889 366.089 24.383 370.64 30.282L360.948 37.0418C358.562 34.1103 354.995 32.2436 351.015 32.2436C343.847 32.2436 338.016 38.29 338.016 45.7223C338.016 53.1547 343.847 59.2013 351.015 59.2013C354.995 59.2013 358.562 57.3346 360.948 54.4031ZM98.2016 40.9469H118.253L114.422 52.0058H98.2016V70.8558H86.4974V20.5891H125.304L121.474 31.6478H98.2016V40.9469ZM263.783 20.5891H301.822V31.6478H288.655V70.8558H276.95V31.6478H263.783V20.5891ZM306.878 70.856H318.857V20.5891H306.878V70.856ZM236.63 51.961L242.556 33.7302L248.481 51.961H236.63ZM235.094 20.5891L217.684 70.8558H230.486L233.026 63.0199H252.086L254.626 70.8558H267.427L250.017 20.5891H235.094ZM201.299 20.5891H213.004V70.8558H204.225L184.474 43.5682V70.8558H172.77V20.5891H181.548L201.299 47.8767V20.5891ZM137.292 51.961L143.218 33.7302L149.144 51.961H137.292ZM135.757 20.5891L118.346 70.8558H131.148L133.688 63.0199H152.748L155.288 70.8558H168.09L150.679 20.5891H135.757Z" fill="white"/>
</svg>
